<?xml version="1.0" encoding="UTF-8"?>
<svg xmlns="http://www.w3.org/2000/svg" version="1.2" baseProfile="tiny-ps" viewBox="0 0 100 100">
  <title>Podium Arena</title>
  <rect x="0" y="0" width="100" height="100" rx="16" fill="#0f172a"/>
  <path d="M27.5 36.5L22.5 36.5C20.0 36.5 18.0 34.5 18.0 32.0C18.0 29.5 20.0 27.5 22.5 27.5L27.5 27.5" fill="none" stroke="#facc15" stroke-width="4" stroke-linecap="round" stroke-linejoin="round"/>
  <path d="M72.5 36.5L77.5 36.5C80.0 36.5 82.0 34.5 82.0 32.0C82.0 29.5 80.0 27.5 77.5 27.5L72.5 27.5" fill="none" stroke="#facc15" stroke-width="4" stroke-linecap="round" stroke-linejoin="round"/>
  <path d="M72.5 18.5L27.5 18.5L27.5 36.5C27.5 49.5 37.5 60.0 50.0 60.0C62.5 60.0 72.5 49.5 72.5 36.5L72.5 18.5Z" fill="none" stroke="#facc15" stroke-width="4" stroke-linecap="round" stroke-linejoin="round"/>
  <path d="M42.0 57.0L42.0 64.0C42.0 65.1 41.0 66.0 40.0 66.5C36.5 68.0 34.5 71.0 34.5 75.0" fill="none" stroke="#facc15" stroke-width="4" stroke-linecap="round" stroke-linejoin="round"/>
  <path d="M58.0 57.0L58.0 64.0C58.0 65.1 59.0 66.0 60.0 66.5C63.5 68.0 65.5 71.0 65.5 75.0" fill="none" stroke="#facc15" stroke-width="4" stroke-linecap="round" stroke-linejoin="round"/>
  <path d="M22.0 80.0L78.0 80.0" fill="none" stroke="#facc15" stroke-width="4" stroke-linecap="round" stroke-linejoin="round"/>
</svg>
